#!OML:ASF H:\Terrain\Patient Classification 1\Takeo\Monday\TakeoMonday.ASF
:FULLY-SPECIFIED
:DEGREES
769
root 7.45801 12.2639 -1.35786 34.951 40.1454 11.5105
lowerback 38.2631 -1.28313 10.6758
upperback 16.5937 2.98915 1.6295
thorax 0.198739 2.39641 -4.67677
lowerneck -14.2736 -8.2172 -8.26186
upperneck -16.6363 -9.6454 2.80653
head -2.52266 -4.30949 2.05047
rclavicle 5.08889e-014 8.62725e-014
rhumerus 67.3726 -5.8327 -39.8897
rradius 23.7858
rwrist -1.03913
rhand -37.9496 37.3488
rfingers 7.12502
rthumb -10.9906 7.65651
lclavicle 5.08889e-014 8.62725e-014
lhumerus -21.6821 -11.4765 92.6644
lradius 69.627
lwrist 32.262
lhand -29.6468 9.95853
lfingers 7.12502
lthumb -2.97634 39.9175
rfemur -101.523 -25.6694 27.4051
rtibia 105.69
rfoot -34.3456 -15.5116
rtoes 2.82189
lfemur -90.0502 -10.6021 -23.5845
ltibia 101.406
lfoot -32.0472 8.30062
ltoes -14.1566
770
root 7.45315 12.1598 -1.35371 35.1059 40.197 11.611
lowerback 37.963 -1.12774 10.7692
upperback 16.8737 3.17011 1.78338
thorax 0.629433 2.51738 -4.60018
lowerneck -14.0215 -8.14964 -7.559
upperneck -17.0448 -9.73662 2.17263
head -2.76657 -4.37078 1.75157
rclavicle 0 1.09332e-013
rhumerus 67.5998 -6.65233 -40.6879
rradius 23.3442
rwrist -0.194263
rhand -38.0266 37.8423
rfingers 7.12502
rthumb -11.0649 8.15398
lclavicle 0 1.09332e-013
lhumerus -21.1793 -11.504 92.8637
lradius 69.1325
lwrist 32.0733
lhand -29.8107 9.54686
lfingers 7.12502
lthumb -3.13465 39.5036
rfemur -102.388 -25.7787 27.5984
rtibia 106.647
rfoot -34.6916 -15.4927
rtoes 3.52764
lfemur -90.7766 -10.7732 -23.5564
ltibia 102.352
lfoot -32.0585 8.96778
ltoes -14.9331
771
root 7.44981 12.0566 -1.34707 34.8831 40.3315 11.4376
lowerback 37.8301 -0.988143 11.0666
upperback 17.2189 3.42407 2.04388
thorax 1.10352 2.68646 -4.52962
lowerneck -13.869 -8.32739 -7.30228
upperneck -17.4466 -10.0647 1.9079
head -2.94682 -4.53413 1.63491
rclavicle 2.54444e-014 9.54166e-015
rhumerus 67.7375 -7.59639 -41.0532
rradius 23.0777
rwrist 0.200786
rhand -37.8337 38.1889
rfingers 7.12502
rthumb -10.8789 8.49066
lclavicle 2.54444e-014 9.54166e-015
lhumerus -20.6782 -12.0788 93.0111
lradius 68.8375
lwrist 32.2948
lhand -29.6103 9.7868
lfingers 7.12502
lthumb -2.94115 39.7463
rfemur -102.899 -25.8315 27.9001
rtibia 107.557
rfoot -34.977 -15.4721
rtoes 4.99403
lfemur -91.3107 -10.84 -23.3245
ltibia 103.414
lfoot -32.1576 9.39723
ltoes -16.2095
772
root 7.44653 11.9568 -1.34028 34.7514 40.354 11.4204
lowerback 37.565 -0.764195 11.1961
upperback 17.6842 3.69488 2.34553
thorax 1.58527 2.859 -4.37844
lowerneck -13.7682 -8.57223 -7.41321
upperneck -17.752 -10.3953 2.01636
head -3.0484 -4.68913 1.69329
rclavicle 1.04958e-013 1.98785e-014
rhumerus 67.8073 -8.51943 -41.0109
rradius 22.8044
rwrist 0.698652
rhand -37.5872 37.8331
rfingers 7.12502
rthumb -10.6411 8.12258
lclavicle 1.04958e-013 1.98785e-014
lhumerus -20.3841 -12.4831 93.2779
lradius 68.8505
lwrist 32.5514
lhand -29.371 10.2308
lfingers 7.12502
lthumb -2.70999 40.1933
rfemur -103.399 -25.9048 28.1399
rtibia 108.442
rfoot -35.2121 -15.5754
rtoes 5.20396
lfemur -91.8503 -10.9092 -23.2593
ltibia 104.491
lfoot -32.2555 9.73366
ltoes -17.2581
773
root 7.44391 11.8557 -1.3341 34.7875 40.3178 11.5113
lowerback 37.2567 -0.516006 11.2038
upperback 18.0102 3.95452 2.60258
thorax 2.06403 3.01101 -4.16505
lowerneck -13.3111 -8.69682 -7.40687
upperneck -18.3489 -10.6263 2.0469
head -3.32737 -4.78888 1.74118
rclavicle -5.725e-014 -7.51406e-014
rhumerus 67.8639 -9.2585 -40.8434
rradius 22.4816
rwrist 1.1548
rhand -37.7463 37.1512
rfingers 7.12502
rthumb -10.7946 7.44861
lclavicle -5.725e-014 -7.51406e-014
lhumerus -20.2082 -12.76 93.6383
lradius 68.8963
lwrist 32.7689
lhand -29.504 9.79588
lfingers 7.12502
lthumb -2.83845 39.7567
rfemur -104.056 -26.0001 28.333
rtibia 109.38
rfoot -35.5161 -15.5206
rtoes 4.64704
lfemur -92.5042 -11.0333 -23.2719
ltibia 105.549
lfoot -32.5562 9.97263
ltoes -16.8899
774
root 7.44631 11.7584 -1.33142 34.3744 40.5909 11.0176
lowerback 36.9717 -0.421185 11.7401
upperback 18.3491 4.19892 2.96874
thorax 2.5977 3.18841 -4.08822
lowerneck -12.3693 -8.78524 -7.3595
upperneck -19.5037 -10.8748 2.09649
head -3.89892 -4.88021 1.84005
rclavicle 3.18055e-014 -6.40087e-014
rhumerus 68.0112 -9.95471 -40.721
rradius 22.1682
rwrist 1.28477
rhand -38.035 37.1638
rfingers 7.12502
rthumb -11.073 7.47586
lclavicle 3.18055e-014 -6.40087e-014
lhumerus -19.8703 -13.2132 93.9718
lradius 68.6852
lwrist 32.788
lhand -29.7444 9.95922
lfingers 7.12502
lthumb -3.07057 39.9169
rfemur -104.473 -26.0367 28.8944
rtibia 110.251
rfoot -36.0962 -15.228
rtoes 5.57578
lfemur -93.0961 -11.0503 -22.7405
ltibia 106.617
lfoot -33.1124 9.76413
ltoes -15.8132
775
root 7.44982 11.6694 -1.3254 33.7201 40.8879 10.3593
lowerback 36.808 -0.348666 12.3532
upperback 18.7647 4.45261 3.37599
thorax 3.19005 3.38328 -4.00002
lowerneck -11.8277 -8.92065 -7.21192
upperneck -20.3914 -11.1768 1.95835
head -4.33284 -5.00482 1.83291
rclavicle -1.59028e-014 -3.97569e-015
rhumerus 68.3131 -10.8021 -40.8052
rradius 21.8583
rwrist 1.29719
rhand -37.8387 37.0875
rfingers 7.12502
rthumb -10.8837 7.38958
lclavicle -1.59028e-014 -3.97569e-015
lhumerus -19.3565 -13.7903 94.2261
lradius 68.4815
lwrist 32.8887
lhand -30.1342 10.8885
lfingers 7.12502
lthumb -3.44706 40.8404
rfemur -104.658 -26.0763 29.4839
rtibia 111.095
rfoot -36.6732 -14.8779
rtoes 6.41554
lfemur -93.4762 -10.9471 -22.1228
ltibia 107.641
lfoot -33.6052 9.01291
ltoes -13.6939
776
root 7.45017 11.5906 -1.31629 33.2752 40.8927 10.1778
lowerback 36.7834 -0.185925 12.4743
upperback 19.2068 4.67981 3.6625
thorax 3.71802 3.53767 -3.7889
lowerneck -11.7345 -9.00339 -6.69106
upperneck -20.7683 -11.4366 1.43908
head -4.54922 -5.13793 1.59681
rclavicle -1.90833e-014 -4.29375e-014
rhumerus 68.4672 -11.5673 -40.7015
rradius 21.7301
rwrist 1.23019
rhand -37.6135 36.8132
rfingers 7.12502
rthumb -10.6665 7.10397
lclavicle -1.90833e-014 -4.29375e-014
lhumerus -18.9103 -14.2852 94.4266
lradius 68.5887
lwrist 33.3665
lhand -30.7456 10.7042
lfingers 7.12502
lthumb -4.03752 40.6457
rfemur -104.805 -26.1661 29.5582
rtibia 111.868
rfoot -37.0633 -14.8008
rtoes 5.15745
lfemur -93.6662 -10.9373 -22.014
ltibia 108.578
lfoot -33.9163 8.76095
ltoes -12.5987
777
root 7.447 11.5114 -1.30902 32.9668 40.7785 10.1962
lowerback 36.815 0.0240115 12.3601
upperback 19.6157 4.90094 3.92583
thorax 4.16262 3.66475 -3.48734
lowerneck -11.2212 -9.05033 -6.34993
upperneck -21.733 -11.6348 1.28275
head -4.42708 -5.23631 1.44042
rclavicle -1.59028e-014 9.34288e-015
rhumerus 68.6605 -12.2404 -40.9362
rradius 21.5223
rwrist 2.16798
rhand -37.6696 37.4951
rfingers 7.12502
rthumb -10.7206 7.78863
lclavicle -1.59028e-014 9.34288e-015
lhumerus -18.4828 -14.7156 94.6788
lradius 68.5096
lwrist 33.5005
lhand -30.9064 10.6817
lfingers 7.12502
lthumb -4.19273 40.6202
rfemur -104.989 -26.1896 29.4397
rtibia 112.582
rfoot -37.3445 -14.8362
rtoes 4.21637
lfemur -93.8644 -10.9358 -22.1316
ltibia 109.446
lfoot -34.1301 9.35719
ltoes -14.1727
778
root 7.44405 11.4166 -1.3015 32.8592 40.6618 10.398
lowerback 36.7206 0.272691 12.141
upperback 20.0199 5.1208 4.25279
thorax 4.62225 3.77592 -3.06296
lowerneck -11.0899 -9.25252 -6.5991
upperneck -22.0572 -11.8963 1.47574
head -4.51663 -5.34835 1.5512
rclavicle -1.33583e-013 -3.71727e-014
rhumerus 69.0161 -13.0268 -41.3866
rradius 21.2402
rwrist 3.31961
rhand -37.2577 37.5782
rfingers 7.12502
rthumb -10.3233 7.8516
lclavicle -1.33583e-013 -3.71727e-014
lhumerus -17.9608 -15.1219 95.0134
lradius 68.1272
lwrist 33.4036
lhand -30.3616 10.8249
lfingers 7.12502
lthumb -3.66666 40.7732
rfemur -105.437 -26.3503 29.3699
rtibia 113.437
rfoot -37.389 -14.3913
rtoes 5.46621
lfemur -94.0505 -11.0338 -22.3448
ltibia 110.276
lfoot -34.426 10.1093
ltoes -16.2844
779
root 7.44432 11.3116 -1.29501 33.0544 40.7055 10.8761
lowerback 36.3958 0.43387 11.9334
upperback 20.3923 5.21326 4.58775
thorax 5.10536 3.82417 -2.59715
lowerneck -10.9279 -9.37851 -6.75366
upperneck -22.4352 -12.0854 1.52046
head -4.64456 -5.4195 1.60742
rclavicle 6.67916e-014 -1.25234e-013
rhumerus 69.0407 -13.6731 -40.8037
rradius 21.2552
rwrist 3.33425
rhand -37.1062 36.535
rfingers 7.12502
rthumb -10.1771 6.80119
lclavicle 6.67916e-014 -1.25234e-013
lhumerus -17.445 -15.2894 95.3922
lradius 67.7667
lwrist 33.5043
lhand -29.7754 10.3532
lfingers 7.12502
lthumb -3.10059 40.3104
rfemur -106.164 -26.9015 29.353
rtibia 114.392
rfoot -37.4455 -13.6042
rtoes 7.118
lfemur -94.3106 -11.4968 -22.5698
ltibia 111.092
lfoot -34.8087 10.7019
ltoes -17.4849
780
root 7.44326 11.2127 -1.28802 32.9248 40.9778 10.8179
lowerback 35.9849 0.418448 11.9047
upperback 21.0015 5.13516 5.06907
thorax 5.88198 3.81376 -1.99858
lowerneck -11.822 -9.47679 -7.48948
upperneck -22.4268 -12.0128 1.7805
head -4.46068 -5.33344 1.75178
rclavicle 5.725e-014 -9.29318e-015
rhumerus 69.6008 -14.1091 -39.7714
rradius 21.3131
rwrist 2.9391
rhand -37.4042 36.0358
rfingers 7.12502
rthumb -10.4646 6.31623
lclavicle 5.725e-014 -9.29318e-015
lhumerus -16.4227 -14.8436 95.8279
lradius 67.4472
lwrist 33.4462
lhand -29.5524 10.024
lfingers 7.12502
lthumb -2.88522 39.9842
rfemur -106.747 -27.3383 29.7662
rtibia 115.222
rfoot -37.8264 -13.2796
rtoes 7.53818
lfemur -94.816 -11.7399 -22.3239
ltibia 112.029
lfoot -34.9975 10.7082
ltoes -16.6997
781
root 7.44231 11.1261 -1.27591 32.4673 41.0766 10.3818
lowerback 35.7138 0.501899 11.9005
upperback 21.6455 5.18961 5.53486
thorax 6.6768 3.86642 -1.4581
lowerneck -12.8384 -9.67218 -8.20034
upperneck -22.3168 -12.0597 1.9482
head -4.23503 -5.30698 1.8534
rclavicle -4.77083e-014 -4.84041e-014
rhumerus 70.1718 -14.5279 -38.6769
rradius 21.3172
rwrist 2.34472
rhand -37.8089 35.839
rfingers 7.12502
rthumb -10.855 6.13954
lclavicle -4.77083e-014 -4.84041e-014
lhumerus -15.4099 -14.5337 96.1994
lradius 67.3206
lwrist 33.6561
lhand -29.5921 9.42338
lfingers 7.12502
lthumb -2.92355 39.3831
rfemur -107.219 -27.4098 30.3566
rtibia 115.97
rfoot -38.0737 -13.295
rtoes 7.3816
lfemur -95.2724 -11.6003 -21.9714
ltibia 113
lfoot -35.1794 10.5778
ltoes -15.5356
782
root 7.45498 11.0548 -1.24955 31.8038 40.3542 9.68906
lowerback 35.4857 1.0077 11.4138
upperback 22.4046 5.58797 5.90605
thorax 7.56978 4.04137 -0.850934
lowerneck -13.846 -9.9801 -8.84185
upperneck -22.3202 -12.282 1.95836
head -4.05925 -5.36 1.89647
rclavicle 2.54444e-014 1.18277e-014
rhumerus 70.6319 -15.0141 -37.5018
rradius 21.3861
rwrist 1.74229
rhand -38.7116 35.7552
rfingers 7.12502
rthumb -11.7255 6.10337
lclavicle 2.54444e-014 1.18277e-014
lhumerus -14.4698 -14.3677 96.6339
lradius 67.3888
lwrist 33.94
lhand -29.6153 9.22041
lfingers 7.12502
lthumb -2.94595 39.1798
rfemur -107.302 -26.5221 30.5158
rtibia 116.593
rfoot -38.1872 -13.5184
rtoes 7.53517
lfemur -95.2916 -10.751 -21.8892
ltibia 113.945
lfoot -35.9467 10.7432
ltoes -15.656
